<svg width="84" height="50" viewBox="0 0 84 50" fill="none" xmlns="http://www.w3.org/2000/svg">
<g clip-path="url(#clip0_1200_222)">
<path d="M53.8001 28.4617H51.3602V18.8459H53.8001L56.7238 24.1571L59.6474 18.8459H62.0876V28.4617H59.6474V23.536L57.5441 27.498H55.8823L53.779 23.536V28.4617H53.8001Z" fill="white"/>
<path d="M65.537 28.4617H63.0549V18.8459H65.537V28.4617Z" fill="white"/>
<path d="M68.8816 28.4617H66.5046V18.8459H68.7131L72.7096 24.1142V18.8459H75.1076V28.4617H72.878L68.8816 23.2148V28.4617Z" fill="white"/>
<path d="M76.0541 18.8459H81.3336L83.2267 21.1803H78.5361V22.4438H82.3852V24.7781H78.5361V26.1273H83.2478V28.4402H76.0541V18.8459Z" fill="white"/>
<path d="M12.1949 24.5854H16.0441V22.251H12.1949V20.9875H16.8644V18.6532H9.71289V28.2475H16.9065V25.9346H12.1949V24.5854Z" fill="white"/>
<path d="M20.1879 24.5854H24.0372V22.251H20.1879V20.9875H24.8575V18.6532H17.7059V28.2475H24.9206V25.9346H20.1879V24.5854Z" fill="white"/>
<path d="M32.5771 19.5956C31.8829 18.9531 31.0416 18.6319 30.053 18.6319H25.72V28.2476H28.202V25.3565H30.053C31.0416 25.3565 31.8829 25.0352 32.5771 24.3927C33.2712 23.7503 33.6077 22.9365 33.6077 21.9942C33.6077 21.0519 33.2712 20.2381 32.5771 19.5956ZM30.7471 22.7437C30.5578 22.9365 30.3264 23.0436 30.053 23.0436H28.202V20.9662H30.053C30.3264 20.9662 30.5578 21.0733 30.7471 21.266C30.9364 21.4588 31.0205 21.6944 31.0205 21.9942C31.0205 22.294 30.9364 22.551 30.7471 22.7437Z" fill="white"/>
<path d="M4.18114 18.6532H0.247803V23.4611V25.9346L2.14086 28.2689H2.21448H4.18114C5.61147 28.2689 6.78938 27.8192 7.73589 26.8983C8.68244 25.956 9.16619 24.821 9.16619 23.4718C9.16619 22.1226 8.68244 20.9875 7.73589 20.0666C6.78938 19.1029 5.61147 18.6532 4.18114 18.6532ZM5.88489 25.2279C5.42216 25.699 4.85423 25.9346 4.18114 25.9346H2.72981V20.9875H4.18114C4.85423 20.9875 5.42216 21.2231 5.88489 21.6943C6.34765 22.1654 6.57901 22.7436 6.57901 23.4503C6.57901 24.1357 6.34765 24.7353 5.88489 25.2279Z" fill="white"/>
<path fill-rule="evenodd" clip-rule="evenodd" d="M41.2639 0L43.7882 2.99822V49.6849L41.2639 46.6866V0ZM23.8601 16.1971H26.6781C28.6258 12.1316 32.0382 8.92701 36.2158 7.29525V34.9079L38.74 37.906V4.49732V3.85482C31.9875 5.15898 26.4251 9.88641 23.8601 16.1971ZM61.1919 16.1971H58.374C56.4263 12.1317 53.014 8.92701 48.8363 7.29525V32.7663L46.3121 29.7681V6.52581V5.35398V3.85482C53.0648 5.15898 58.6268 9.88641 61.1919 16.1971Z" fill="url(#paint0_radial_1200_222)"/>
</g>
<defs>
<radialGradient id="paint0_radial_1200_222" cx="0" cy="0" r="1" gradientUnits="userSpaceOnUse" gradientTransform="translate(42.5263 24.8424) rotate(90) scale(29.5539 19.9218)">
<stop stop-color="#EEE0A6"/>
<stop offset="1" stop-color="#DEBB24"/>
</radialGradient>
<clipPath id="clip0_1200_222">
<rect width="83" height="50" fill="white" transform="translate(0.247803)"/>
</clipPath>
</defs>
</svg>
