<svg width="23" height="17" viewBox="0 0 23 17" fill="none" xmlns="http://www.w3.org/2000/svg">
<path d="M15.3867 7.97281C14.3268 7.97281 13.4737 8.91397 13.4737 10.0904C13.4737 11.2407 14.3268 12.1818 15.3867 12.1818C16.4725 12.1818 17.3256 11.2407 17.3256 10.0904C17.3256 8.91397 16.4725 7.97281 15.3867 7.97281ZM8.53602 7.97281C7.47609 7.97281 6.59712 8.91397 6.59712 10.0904C6.59712 11.2407 7.47609 12.1818 8.53602 12.1818C9.59595 12.1818 10.4491 11.2407 10.4491 10.0904C10.4491 8.91397 9.59595 7.97281 8.53602 7.97281ZM17.1964 16.6523C17.1964 16.6523 16.5242 15.8157 15.9555 15.1099C18.4373 14.404 19.3679 12.8354 19.3679 12.8354C18.5924 13.3583 17.8427 13.7243 17.1964 13.9596C16.2398 14.3517 15.335 14.6393 14.4561 14.7961C12.6464 15.136 10.9919 15.0576 9.5701 14.7961C8.48432 14.587 7.55365 14.2733 6.80394 13.9596C6.36446 13.8027 5.89912 13.5936 5.40793 13.306C5.35623 13.2798 5.30453 13.2537 5.25282 13.2014C5.20112 13.2014 5.17527 13.1753 5.14942 13.1753C4.81334 12.9661 4.63238 12.8354 4.63238 12.8354C4.63238 12.8354 5.53719 14.3517 7.94143 15.0837C7.37268 15.8157 6.67468 16.6523 6.67468 16.6523C2.51252 16.5216 0.935547 13.7504 0.935547 13.7504C0.935547 7.60681 3.65 2.63961 3.65 2.63961C6.36446 0.574305 8.9238 0.652735 8.9238 0.652735L9.13061 0.86188C5.71816 1.85532 4.16704 3.37162 4.16704 3.37162C4.16704 3.37162 4.58067 3.13633 5.30453 2.82261C7.32098 1.93375 8.89795 1.69846 9.5701 1.62003C9.67351 1.62003 9.77691 1.59389 9.88032 1.56774C11.0436 1.43703 12.3362 1.38474 13.7064 1.5416C15.4901 1.75074 17.4032 2.29975 19.3679 3.37162C19.3679 3.37162 17.8944 1.93374 14.6887 0.940309L14.9473 0.652735C14.9473 0.652735 17.5066 0.574305 20.221 2.63961C20.221 2.63961 22.9355 7.60681 22.9355 13.7504C22.9355 13.7504 21.3585 16.5216 17.1964 16.6523Z" fill="#4D60E9"/>
</svg>
