<svg width="23" height="17" viewBox="0 0 23 17" fill="none" xmlns="http://www.w3.org/2000/svg">
<path d="M15.3867 7.9733C14.3268 7.9733 13.4737 8.91446 13.4737 10.0909C13.4737 11.2412 14.3268 12.1823 15.3867 12.1823C16.4725 12.1823 17.3256 11.2412 17.3256 10.0909C17.3256 8.91446 16.4725 7.9733 15.3867 7.9733ZM8.53602 7.9733C7.47609 7.9733 6.59712 8.91446 6.59712 10.0909C6.59712 11.2412 7.47609 12.1823 8.53602 12.1823C9.59595 12.1823 10.4491 11.2412 10.4491 10.0909C10.4491 8.91446 9.59595 7.9733 8.53602 7.9733ZM17.1964 16.6528C17.1964 16.6528 16.5242 15.8162 15.9555 15.1104C18.4373 14.4045 19.3679 12.8359 19.3679 12.8359C18.5924 13.3588 17.8427 13.7248 17.1964 13.9601C16.2398 14.3522 15.335 14.6398 14.4561 14.7966C12.6464 15.1365 10.9919 15.0581 9.5701 14.7966C8.48432 14.5875 7.55365 14.2738 6.80394 13.9601C6.36446 13.8032 5.89912 13.5941 5.40793 13.3065C5.35623 13.2803 5.30453 13.2542 5.25282 13.2019C5.20112 13.2019 5.17527 13.1758 5.14942 13.1758C4.81334 12.9666 4.63238 12.8359 4.63238 12.8359C4.63238 12.8359 5.53719 14.3522 7.94143 15.0842C7.37268 15.8162 6.67468 16.6528 6.67468 16.6528C2.51252 16.5221 0.935547 13.7509 0.935547 13.7509C0.935547 7.6073 3.65 2.6401 3.65 2.6401C6.36446 0.574793 8.9238 0.653223 8.9238 0.653223L9.13061 0.862368C5.71816 1.85581 4.16704 3.37211 4.16704 3.37211C4.16704 3.37211 4.58067 3.13682 5.30453 2.8231C7.32098 1.93424 8.89795 1.69895 9.5701 1.62052C9.67351 1.62052 9.77691 1.59438 9.88032 1.56823C11.0436 1.43752 12.3362 1.38523 13.7064 1.54209C15.4901 1.75123 17.4032 2.30024 19.3679 3.37211C19.3679 3.37211 17.8944 1.93423 14.6887 0.940797L14.9473 0.653223C14.9473 0.653223 17.5066 0.574793 20.221 2.6401C20.221 2.6401 22.9355 7.6073 22.9355 13.7509C22.9355 13.7509 21.3585 16.5221 17.1964 16.6528Z" fill="white"/>
</svg>
