<svg width="282" height="276" viewBox="0 0 282 276" fill="none" xmlns="http://www.w3.org/2000/svg">
<circle cx="137.693" cy="140.625" r="76.3031" fill="#34333F"/>
<g filter="url(#filter0_b_1618_13)">
<path d="M141.109 107.598L94.0967 38.4132L94.0967 0.831055" stroke="url(#paint0_linear_1618_13)" stroke-opacity="0.6" stroke-width="46.1235"/>
</g>
<path d="M94.0964 43.538L94.0964 25.6011M94.0964 25.6011L89.541 30.1565M94.0964 25.6011L98.6518 30.1565" stroke="url(#paint1_linear_1618_13)" stroke-width="1.70828"/>
<g filter="url(#filter1_b_1618_13)">
<path d="M139.4 107.598L186.413 38.4132L186.413 0.831055" stroke="url(#paint2_linear_1618_13)" stroke-opacity="0.8" stroke-width="46.1235"/>
</g>
<path d="M185.844 23.8932L185.844 41.8301M185.844 41.8301L190.399 37.2747M185.844 41.8301L181.289 37.2747" stroke="url(#paint3_linear_1618_13)" stroke-width="1.70828"/>
<g filter="url(#filter2_b_1618_13)">
<path d="M123.345 152.61L91.9355 219.256L91.9355 275.5" stroke="url(#paint4_linear_1618_13)" stroke-opacity="0.8" stroke-width="46.1235"/>
</g>
<g filter="url(#filter3_b_1618_13)">
<path d="M123.345 152.61L29.9355 219.256L29.9355 275.5" stroke="url(#paint5_linear_1618_13)" stroke-opacity="0.7" stroke-width="46.1235"/>
</g>
<path d="M92.8035 260.937V243M92.8035 243L88.248 247.555M92.8035 243L97.3589 247.555" stroke="url(#paint6_linear_1618_13)" stroke-width="1.70828"/>
<path d="M29.803 243L29.803 260.937M29.803 260.937L34.3584 256.382M29.803 260.937L25.2476 256.382" stroke="url(#paint7_linear_1618_13)" stroke-width="1.70828"/>
<g filter="url(#filter4_b_1618_13)">
<path d="M158.436 152.61L189.846 219.256L189.846 275.5" stroke="url(#paint8_linear_1618_13)" stroke-opacity="0.7" stroke-width="46.1235"/>
</g>
<g filter="url(#filter5_b_1618_13)">
<path d="M158.436 152.61L251.846 219.256L251.846 275.5" stroke="url(#paint9_linear_1618_13)" stroke-opacity="0.6" stroke-width="46.1235"/>
</g>
<path d="M188.978 260.937V243M188.978 243L193.533 247.555M188.978 243L184.422 247.555" stroke="url(#paint10_linear_1618_13)" stroke-width="1.70828"/>
<path d="M251.978 243L251.978 260.937M251.978 260.937L247.423 256.382M251.978 260.937L256.534 256.382" stroke="url(#paint11_linear_1618_13)" stroke-width="1.70828"/>
<g filter="url(#filter6_d_1618_13)">
<circle cx="137.692" cy="140.625" r="49.5401" fill="white"/>
</g>
<path d="M107.284 142.359C108.706 142.359 109.858 141.207 109.858 139.785C109.858 138.363 108.706 137.193 107.284 137.193H100.588V145.653C101.884 145.653 102.928 144.609 102.928 143.313V142.827C102.928 142.575 103.144 142.359 103.396 142.359H107.284ZM106.978 139.407C107.266 139.407 107.518 139.641 107.518 139.947C107.518 140.253 107.266 140.487 106.978 140.487H103.36C103.054 140.487 102.82 140.253 102.82 139.947C102.82 139.641 103.054 139.407 103.36 139.407H106.978ZM119.498 145.653C119.498 144.429 118.526 143.439 117.302 143.439H114.386C114.008 143.439 113.684 143.133 113.684 142.737V139.551C113.684 138.255 112.64 137.193 111.344 137.193V143.313C111.344 144.609 112.388 145.653 113.684 145.653H119.498ZM128.594 143.313C128.594 144.609 129.638 145.653 130.934 145.653V139.551C130.934 138.255 129.89 137.193 128.594 137.193H123.194C121.898 137.193 120.854 138.255 120.854 139.551V145.653C122.15 145.653 123.194 144.609 123.194 143.313V142.827C123.194 142.575 123.41 142.359 123.662 142.359H128.126C128.378 142.359 128.594 142.575 128.594 142.827V143.313ZM128.054 139.407C128.36 139.407 128.594 139.641 128.594 139.947C128.594 140.253 128.36 140.487 128.054 140.487H123.734C123.428 140.487 123.194 140.253 123.194 139.947C123.194 139.641 123.428 139.407 123.734 139.407H128.054ZM138.347 142.179L142.055 137.571C141.659 137.247 141.155 137.085 140.669 137.085C140.039 137.085 139.391 137.373 138.959 137.895L137.159 140.109L135.377 137.895C134.945 137.373 134.297 137.085 133.649 137.085C133.163 137.085 132.677 137.247 132.263 137.571L135.989 142.179V144.483C135.989 145.131 136.511 145.653 137.159 145.653C137.807 145.653 138.347 145.131 138.347 144.483V142.179ZM152.749 145.653C152.749 144.429 151.759 143.439 150.535 143.439H146.125C145.837 143.439 145.585 143.205 145.585 142.899C145.585 142.611 145.837 142.359 146.125 142.359H149.455C149.977 142.359 150.409 141.945 150.409 141.423C150.409 140.901 149.977 140.487 149.455 140.487H146.125C145.837 140.487 145.585 140.253 145.585 139.947C145.585 139.641 145.837 139.407 146.125 139.407H150.301C151.525 139.407 152.515 138.417 152.515 137.193H145.585C144.289 137.193 143.245 138.255 143.245 139.551V143.313C143.245 144.609 144.289 145.653 145.585 145.653H152.749ZM164.209 143.313C164.209 142.485 163.795 141.765 163.147 141.333C163.651 140.901 163.975 140.271 163.975 139.551C163.975 138.255 162.931 137.193 161.635 137.193H157.513H154.237V145.653C155.533 145.653 156.577 144.609 156.577 143.313V143.079C156.577 142.683 156.901 142.359 157.279 142.359H157.999H160.357H161.167C161.545 142.359 161.869 142.683 161.869 143.079V143.313C161.869 144.609 162.913 145.653 164.209 145.653V143.313ZM161.095 139.407C161.383 139.407 161.635 139.641 161.635 139.947C161.635 140.253 161.383 140.487 161.095 140.487H157.009C156.703 140.487 156.469 140.253 156.469 139.947C156.469 139.641 156.703 139.407 157.009 139.407H161.095ZM172.942 145.653C174.382 145.653 175.534 144.501 175.534 143.079C175.534 141.639 174.382 140.487 172.942 140.487H168.676C168.388 140.487 168.136 140.253 168.136 139.947C168.136 139.641 168.388 139.407 168.676 139.407H172.852C174.076 139.407 175.066 138.417 175.066 137.193H168.37C166.948 137.193 165.796 138.363 165.796 139.785C165.796 141.207 166.948 142.359 168.37 142.359H172.654C172.942 142.359 173.194 142.611 173.194 142.899C173.194 143.205 172.942 143.439 172.654 143.439H167.686C166.462 143.439 165.472 144.429 165.472 145.653H172.942Z" fill="#212121"/>
<defs>
<filter id="filter0_b_1618_13" x="59.6466" y="-10.5575" width="111.925" height="142.506" filterUnits="userSpaceOnUse" color-interpolation-filters="sRGB">
<feFlood flood-opacity="0" result="BackgroundImageFix"/>
<feGaussianBlur in="BackgroundImage" stdDeviation="5.69426"/>
<feComposite in2="SourceAlpha" operator="in" result="effect1_backgroundBlur_1618_13"/>
<feBlend mode="normal" in="SourceGraphic" in2="effect1_backgroundBlur_1618_13" result="shape"/>
</filter>
<filter id="filter1_b_1618_13" x="108.938" y="-10.5575" width="111.925" height="142.506" filterUnits="userSpaceOnUse" color-interpolation-filters="sRGB">
<feFlood flood-opacity="0" result="BackgroundImageFix"/>
<feGaussianBlur in="BackgroundImage" stdDeviation="5.69426"/>
<feComposite in2="SourceAlpha" operator="in" result="effect1_backgroundBlur_1618_13"/>
<feBlend mode="normal" in="SourceGraphic" in2="effect1_backgroundBlur_1618_13" result="shape"/>
</filter>
<filter id="filter2_b_1618_13" x="57.4855" y="131.39" width="98.1091" height="155.499" filterUnits="userSpaceOnUse" color-interpolation-filters="sRGB">
<feFlood flood-opacity="0" result="BackgroundImageFix"/>
<feGaussianBlur in="BackgroundImage" stdDeviation="5.69426"/>
<feComposite in2="SourceAlpha" operator="in" result="effect1_backgroundBlur_1618_13"/>
<feBlend mode="normal" in="SourceGraphic" in2="effect1_backgroundBlur_1618_13" result="shape"/>
</filter>
<filter id="filter3_b_1618_13" x="-4.51449" y="122.448" width="152.643" height="164.441" filterUnits="userSpaceOnUse" color-interpolation-filters="sRGB">
<feFlood flood-opacity="0" result="BackgroundImageFix"/>
<feGaussianBlur in="BackgroundImage" stdDeviation="5.69426"/>
<feComposite in2="SourceAlpha" operator="in" result="effect1_backgroundBlur_1618_13"/>
<feBlend mode="normal" in="SourceGraphic" in2="effect1_backgroundBlur_1618_13" result="shape"/>
</filter>
<filter id="filter4_b_1618_13" x="126.187" y="131.39" width="98.1091" height="155.499" filterUnits="userSpaceOnUse" color-interpolation-filters="sRGB">
<feFlood flood-opacity="0" result="BackgroundImageFix"/>
<feGaussianBlur in="BackgroundImage" stdDeviation="5.69426"/>
<feComposite in2="SourceAlpha" operator="in" result="effect1_backgroundBlur_1618_13"/>
<feBlend mode="normal" in="SourceGraphic" in2="effect1_backgroundBlur_1618_13" result="shape"/>
</filter>
<filter id="filter5_b_1618_13" x="133.652" y="122.448" width="152.643" height="164.441" filterUnits="userSpaceOnUse" color-interpolation-filters="sRGB">
<feFlood flood-opacity="0" result="BackgroundImageFix"/>
<feGaussianBlur in="BackgroundImage" stdDeviation="5.69426"/>
<feComposite in2="SourceAlpha" operator="in" result="effect1_backgroundBlur_1618_13"/>
<feBlend mode="normal" in="SourceGraphic" in2="effect1_backgroundBlur_1618_13" result="shape"/>
</filter>
<filter id="filter6_d_1618_13" x="81.3192" y="91.085" width="112.746" height="115.024" filterUnits="userSpaceOnUse" color-interpolation-filters="sRGB">
<feFlood flood-opacity="0" result="BackgroundImageFix"/>
<feColorMatrix in="SourceAlpha" type="matrix" values="0 0 0 0 0 0 0 0 0 0 0 0 0 0 0 0 0 0 127 0" result="hardAlpha"/>
<feOffset dy="9.11081"/>
<feGaussianBlur stdDeviation="3.41656"/>
<feComposite in2="hardAlpha" operator="out"/>
<feColorMatrix type="matrix" values="0 0 0 0 0 0 0 0 0 0 0 0 0 0 0 0 0 0 0.25 0"/>
<feBlend mode="normal" in2="BackgroundImageFix" result="effect1_dropShadow_1618_13"/>
<feBlend mode="normal" in="SourceGraphic" in2="effect1_dropShadow_1618_13" result="shape"/>
</filter>
<linearGradient id="paint0_linear_1618_13" x1="117.915" y1="1.11577" x2="117.915" y2="107.598" gradientUnits="userSpaceOnUse">
<stop stop-color="#0975FF"/>
<stop offset="0.843006" stop-color="#D02837"/>
</linearGradient>
<linearGradient id="paint1_linear_1618_13" x1="94.0964" y1="25.6011" x2="94.0964" y2="43.538" gradientUnits="userSpaceOnUse">
<stop stop-color="white"/>
<stop offset="1" stop-color="white" stop-opacity="0"/>
</linearGradient>
<linearGradient id="paint2_linear_1618_13" x1="152.355" y1="1.11577" x2="152.355" y2="107.598" gradientUnits="userSpaceOnUse">
<stop stop-color="white"/>
<stop offset="1" stop-color="white" stop-opacity="0"/>
</linearGradient>
<linearGradient id="paint3_linear_1618_13" x1="185.844" y1="41.8301" x2="185.844" y2="23.8932" gradientUnits="userSpaceOnUse">
<stop stop-color="white"/>
<stop offset="1" stop-color="white" stop-opacity="0"/>
</linearGradient>
<linearGradient id="paint4_linear_1618_13" x1="54.5917" y1="215.482" x2="125.984" y2="174.264" gradientUnits="userSpaceOnUse">
<stop stop-color="white"/>
<stop offset="1" stop-color="white" stop-opacity="0"/>
</linearGradient>
<linearGradient id="paint5_linear_1618_13" x1="-7.25196" y1="314.5" x2="114.748" y2="156.5" gradientUnits="userSpaceOnUse">
<stop stop-color="#3BC66A"/>
<stop offset="1" stop-color="#00F1E0"/>
</linearGradient>
<linearGradient id="paint6_linear_1618_13" x1="92.8035" y1="243" x2="92.8035" y2="260.937" gradientUnits="userSpaceOnUse">
<stop stop-color="white"/>
<stop offset="1" stop-color="white" stop-opacity="0"/>
</linearGradient>
<linearGradient id="paint7_linear_1618_13" x1="29.803" y1="260.937" x2="29.803" y2="243" gradientUnits="userSpaceOnUse">
<stop stop-color="white"/>
<stop offset="1" stop-color="white" stop-opacity="0"/>
</linearGradient>
<linearGradient id="paint8_linear_1618_13" x1="210.748" y1="313.5" x2="124.022" y2="180.518" gradientUnits="userSpaceOnUse">
<stop stop-color="#3BC66A"/>
<stop offset="1" stop-color="#00F1E0"/>
</linearGradient>
<linearGradient id="paint9_linear_1618_13" x1="294.248" y1="243" x2="275.025" y2="149.267" gradientUnits="userSpaceOnUse">
<stop stop-color="#0975FF"/>
<stop offset="1" stop-color="#D02837"/>
</linearGradient>
<linearGradient id="paint10_linear_1618_13" x1="188.978" y1="243" x2="188.978" y2="260.937" gradientUnits="userSpaceOnUse">
<stop stop-color="white"/>
<stop offset="1" stop-color="white" stop-opacity="0"/>
</linearGradient>
<linearGradient id="paint11_linear_1618_13" x1="251.978" y1="260.937" x2="251.978" y2="243" gradientUnits="userSpaceOnUse">
<stop stop-color="white"/>
<stop offset="1" stop-color="white" stop-opacity="0"/>
</linearGradient>
</defs>
</svg>
