<svg width="242" height="217" viewBox="0 0 242 217" fill="none" xmlns="http://www.w3.org/2000/svg">
<circle cx="120.692" cy="140.625" r="76.3031" fill="#34333F"/>
<g filter="url(#filter0_b_1709_6)">
<path d="M124.109 107.598L87.0967 38.4132L87.0967 0.831055" stroke="url(#paint0_linear_1709_6)" stroke-opacity="0.6" stroke-width="46.1235"/>
</g>
<path d="M87.0964 43.5385L87.0964 25.6016M87.0964 25.6016L82.541 30.157M87.0964 25.6016L91.6518 30.157" stroke="url(#paint1_linear_1709_6)" stroke-width="1.70828"/>
<g filter="url(#filter1_b_1709_6)">
<path d="M122.401 107.598L159.414 38.4132L159.414 0.831055" stroke="url(#paint2_linear_1709_6)" stroke-opacity="0.8" stroke-width="46.1235"/>
</g>
<path d="M158.844 23.8932L158.844 41.8301M158.844 41.8301L163.399 37.2747M158.844 41.8301L154.289 37.2747" stroke="url(#paint3_linear_1709_6)" stroke-width="1.70828"/>
<g filter="url(#filter2_b_1709_6)">
<path d="M150.303 138.917L219.488 175.93L241.748 175.93" stroke="url(#paint4_linear_1709_6)" stroke-opacity="0.7" stroke-width="46.1235"/>
</g>
<path d="M234.091 175.36L216.154 175.36M216.154 175.36L220.709 179.916M216.154 175.36L220.709 170.805" stroke="url(#paint5_linear_1709_6)" stroke-width="1.70828"/>
<g filter="url(#filter3_b_1709_6)">
<path d="M150.303 140.625L219.488 103.613L241.749 103.613" stroke="url(#paint6_linear_1709_6)" stroke-opacity="0.6" stroke-width="46.1235"/>
</g>
<path d="M216.248 103.613L234.185 103.613M234.185 103.613L229.63 99.0571M234.185 103.613L229.63 108.168" stroke="url(#paint7_linear_1709_6)" stroke-width="1.70828"/>
<g filter="url(#filter4_b_1709_6)">
<path d="M92.2263 140.044L23.0411 103.031L0.748047 103.031" stroke="url(#paint8_linear_1709_6)" stroke-opacity="0.7" stroke-width="46.1235"/>
</g>
<path d="M30.185 103.601L12.248 103.601M12.248 103.601L16.8035 108.156M12.248 103.601L16.8035 99.0454" stroke="url(#paint9_linear_1709_6)" stroke-width="1.70828"/>
<g filter="url(#filter5_b_1709_6)">
<path d="M92.2263 138.336L23.0411 175.349L0.748047 175.349" stroke="url(#paint10_linear_1709_6)" stroke-opacity="0.8" stroke-width="46.1235"/>
</g>
<path d="M12.2481 175.348H30.1851M30.1851 175.348L25.6297 170.793M30.1851 175.348L25.6297 179.904" stroke="url(#paint11_linear_1709_6)" stroke-width="1.70828"/>
<g filter="url(#filter6_d_1709_6)">
<circle cx="120.692" cy="140.625" r="49.5401" fill="white"/>
</g>
<path d="M90.2837 142.359C91.7057 142.359 92.8577 141.207 92.8577 139.785C92.8577 138.363 91.7057 137.193 90.2837 137.193H83.5877V145.653C84.8837 145.653 85.9277 144.609 85.9277 143.313V142.827C85.9277 142.575 86.1437 142.359 86.3957 142.359H90.2837ZM89.9777 139.407C90.2657 139.407 90.5177 139.641 90.5177 139.947C90.5177 140.253 90.2657 140.487 89.9777 140.487H86.3597C86.0537 140.487 85.8197 140.253 85.8197 139.947C85.8197 139.641 86.0537 139.407 86.3597 139.407H89.9777ZM102.498 145.653C102.498 144.429 101.526 143.439 100.302 143.439H97.3859C97.0079 143.439 96.6839 143.133 96.6839 142.737V139.551C96.6839 138.255 95.6399 137.193 94.3439 137.193V143.313C94.3439 144.609 95.3879 145.653 96.6839 145.653H102.498ZM111.594 143.313C111.594 144.609 112.638 145.653 113.934 145.653V139.551C113.934 138.255 112.89 137.193 111.594 137.193H106.194C104.898 137.193 103.854 138.255 103.854 139.551V145.653C105.15 145.653 106.194 144.609 106.194 143.313V142.827C106.194 142.575 106.41 142.359 106.662 142.359H111.126C111.378 142.359 111.594 142.575 111.594 142.827V143.313ZM111.054 139.407C111.36 139.407 111.594 139.641 111.594 139.947C111.594 140.253 111.36 140.487 111.054 140.487H106.734C106.428 140.487 106.194 140.253 106.194 139.947C106.194 139.641 106.428 139.407 106.734 139.407H111.054ZM121.347 142.179L125.055 137.571C124.659 137.247 124.155 137.085 123.669 137.085C123.039 137.085 122.391 137.373 121.959 137.895L120.159 140.109L118.377 137.895C117.945 137.373 117.297 137.085 116.649 137.085C116.163 137.085 115.677 137.247 115.263 137.571L118.989 142.179V144.483C118.989 145.131 119.511 145.653 120.159 145.653C120.807 145.653 121.347 145.131 121.347 144.483V142.179ZM135.748 145.653C135.748 144.429 134.758 143.439 133.534 143.439H129.124C128.836 143.439 128.584 143.205 128.584 142.899C128.584 142.611 128.836 142.359 129.124 142.359H132.454C132.976 142.359 133.408 141.945 133.408 141.423C133.408 140.901 132.976 140.487 132.454 140.487H129.124C128.836 140.487 128.584 140.253 128.584 139.947C128.584 139.641 128.836 139.407 129.124 139.407H133.3C134.524 139.407 135.514 138.417 135.514 137.193H128.584C127.288 137.193 126.244 138.255 126.244 139.551V143.313C126.244 144.609 127.288 145.653 128.584 145.653H135.748ZM147.208 143.313C147.208 142.485 146.794 141.765 146.146 141.333C146.65 140.901 146.974 140.271 146.974 139.551C146.974 138.255 145.93 137.193 144.634 137.193H140.512H137.236V145.653C138.532 145.653 139.576 144.609 139.576 143.313V143.079C139.576 142.683 139.9 142.359 140.278 142.359H140.998H143.356H144.166C144.544 142.359 144.868 142.683 144.868 143.079V143.313C144.868 144.609 145.912 145.653 147.208 145.653V143.313ZM144.094 139.407C144.382 139.407 144.634 139.641 144.634 139.947C144.634 140.253 144.382 140.487 144.094 140.487H140.008C139.702 140.487 139.468 140.253 139.468 139.947C139.468 139.641 139.702 139.407 140.008 139.407H144.094ZM155.941 145.653C157.381 145.653 158.533 144.501 158.533 143.079C158.533 141.639 157.381 140.487 155.941 140.487H151.675C151.387 140.487 151.135 140.253 151.135 139.947C151.135 139.641 151.387 139.407 151.675 139.407H155.851C157.075 139.407 158.065 138.417 158.065 137.193H151.369C149.947 137.193 148.795 138.363 148.795 139.785C148.795 141.207 149.947 142.359 151.369 142.359H155.653C155.941 142.359 156.193 142.611 156.193 142.899C156.193 143.205 155.941 143.439 155.653 143.439H150.685C149.461 143.439 148.471 144.429 148.471 145.653H155.941Z" fill="#212121"/>
<defs>
<filter id="filter0_b_1709_6" x="52.6466" y="-10.5575" width="103.186" height="140.423" filterUnits="userSpaceOnUse" color-interpolation-filters="sRGB">
<feFlood flood-opacity="0" result="BackgroundImageFix"/>
<feGaussianBlur in="BackgroundImage" stdDeviation="5.69426"/>
<feComposite in2="SourceAlpha" operator="in" result="effect1_backgroundBlur_1709_6"/>
<feBlend mode="normal" in="SourceGraphic" in2="effect1_backgroundBlur_1709_6" result="shape"/>
</filter>
<filter id="filter1_b_1709_6" x="90.6779" y="-10.5575" width="103.186" height="140.423" filterUnits="userSpaceOnUse" color-interpolation-filters="sRGB">
<feFlood flood-opacity="0" result="BackgroundImageFix"/>
<feGaussianBlur in="BackgroundImage" stdDeviation="5.69426"/>
<feComposite in2="SourceAlpha" operator="in" result="effect1_backgroundBlur_1709_6"/>
<feBlend mode="normal" in="SourceGraphic" in2="effect1_backgroundBlur_1709_6" result="shape"/>
</filter>
<filter id="filter2_b_1709_6" x="128.035" y="107.194" width="125.101" height="103.186" filterUnits="userSpaceOnUse" color-interpolation-filters="sRGB">
<feFlood flood-opacity="0" result="BackgroundImageFix"/>
<feGaussianBlur in="BackgroundImage" stdDeviation="5.69426"/>
<feComposite in2="SourceAlpha" operator="in" result="effect1_backgroundBlur_1709_6"/>
<feBlend mode="normal" in="SourceGraphic" in2="effect1_backgroundBlur_1709_6" result="shape"/>
</filter>
<filter id="filter3_b_1709_6" x="128.035" y="69.1628" width="125.102" height="103.186" filterUnits="userSpaceOnUse" color-interpolation-filters="sRGB">
<feFlood flood-opacity="0" result="BackgroundImageFix"/>
<feGaussianBlur in="BackgroundImage" stdDeviation="5.69426"/>
<feComposite in2="SourceAlpha" operator="in" result="effect1_backgroundBlur_1709_6"/>
<feBlend mode="normal" in="SourceGraphic" in2="effect1_backgroundBlur_1709_6" result="shape"/>
</filter>
<filter id="filter4_b_1709_6" x="-10.6405" y="68.5812" width="125.134" height="103.186" filterUnits="userSpaceOnUse" color-interpolation-filters="sRGB">
<feFlood flood-opacity="0" result="BackgroundImageFix"/>
<feGaussianBlur in="BackgroundImage" stdDeviation="5.69426"/>
<feComposite in2="SourceAlpha" operator="in" result="effect1_backgroundBlur_1709_6"/>
<feBlend mode="normal" in="SourceGraphic" in2="effect1_backgroundBlur_1709_6" result="shape"/>
</filter>
<filter id="filter5_b_1709_6" x="-10.6405" y="106.613" width="125.134" height="103.186" filterUnits="userSpaceOnUse" color-interpolation-filters="sRGB">
<feFlood flood-opacity="0" result="BackgroundImageFix"/>
<feGaussianBlur in="BackgroundImage" stdDeviation="5.69426"/>
<feComposite in2="SourceAlpha" operator="in" result="effect1_backgroundBlur_1709_6"/>
<feBlend mode="normal" in="SourceGraphic" in2="effect1_backgroundBlur_1709_6" result="shape"/>
</filter>
<filter id="filter6_d_1709_6" x="64.3187" y="91.085" width="112.746" height="115.024" filterUnits="userSpaceOnUse" color-interpolation-filters="sRGB">
<feFlood flood-opacity="0" result="BackgroundImageFix"/>
<feColorMatrix in="SourceAlpha" type="matrix" values="0 0 0 0 0 0 0 0 0 0 0 0 0 0 0 0 0 0 127 0" result="hardAlpha"/>
<feOffset dy="9.11081"/>
<feGaussianBlur stdDeviation="3.41656"/>
<feComposite in2="hardAlpha" operator="out"/>
<feColorMatrix type="matrix" values="0 0 0 0 0 0 0 0 0 0 0 0 0 0 0 0 0 0 0.25 0"/>
<feBlend mode="normal" in2="BackgroundImageFix" result="effect1_dropShadow_1709_6"/>
<feBlend mode="normal" in="SourceGraphic" in2="effect1_dropShadow_1709_6" result="shape"/>
</filter>
<linearGradient id="paint0_linear_1709_6" x1="100.915" y1="1.11577" x2="100.915" y2="107.598" gradientUnits="userSpaceOnUse">
<stop stop-color="#0975FF"/>
<stop offset="0.843006" stop-color="#D02837"/>
</linearGradient>
<linearGradient id="paint1_linear_1709_6" x1="87.0964" y1="25.6016" x2="87.0964" y2="43.5385" gradientUnits="userSpaceOnUse">
<stop stop-color="white"/>
<stop offset="1" stop-color="white" stop-opacity="0"/>
</linearGradient>
<linearGradient id="paint2_linear_1709_6" x1="135.355" y1="1.11577" x2="135.355" y2="107.598" gradientUnits="userSpaceOnUse">
<stop stop-color="white"/>
<stop offset="1" stop-color="white" stop-opacity="0"/>
</linearGradient>
<linearGradient id="paint3_linear_1709_6" x1="158.844" y1="41.8301" x2="158.844" y2="23.8932" gradientUnits="userSpaceOnUse">
<stop stop-color="white"/>
<stop offset="1" stop-color="white" stop-opacity="0"/>
</linearGradient>
<linearGradient id="paint4_linear_1709_6" x1="286.204" y1="157.423" x2="150.303" y2="157.423" gradientUnits="userSpaceOnUse">
<stop stop-color="#3BC66A"/>
<stop offset="1" stop-color="#00F1E0"/>
</linearGradient>
<linearGradient id="paint5_linear_1709_6" x1="216.154" y1="175.36" x2="234.091" y2="175.36" gradientUnits="userSpaceOnUse">
<stop stop-color="white"/>
<stop offset="1" stop-color="white" stop-opacity="0"/>
</linearGradient>
<linearGradient id="paint6_linear_1709_6" x1="250.248" y1="111.389" x2="150.303" y2="111.389" gradientUnits="userSpaceOnUse">
<stop stop-color="#0975FF"/>
<stop offset="0.843006" stop-color="#D02837"/>
</linearGradient>
<linearGradient id="paint7_linear_1709_6" x1="234.185" y1="103.613" x2="216.248" y2="103.613" gradientUnits="userSpaceOnUse">
<stop stop-color="white"/>
<stop offset="1" stop-color="white" stop-opacity="0"/>
</linearGradient>
<linearGradient id="paint8_linear_1709_6" x1="-43.6749" y1="121.538" x2="92.2263" y2="121.538" gradientUnits="userSpaceOnUse">
<stop offset="0.328148" stop-color="#3BC66A"/>
<stop offset="1" stop-color="#00F1E0"/>
</linearGradient>
<linearGradient id="paint9_linear_1709_6" x1="12.248" y1="103.601" x2="30.185" y2="103.601" gradientUnits="userSpaceOnUse">
<stop stop-color="white"/>
<stop offset="1" stop-color="white" stop-opacity="0"/>
</linearGradient>
<linearGradient id="paint10_linear_1709_6" x1="1.24805" y1="158.408" x2="83.6849" y2="158.408" gradientUnits="userSpaceOnUse">
<stop stop-color="white"/>
<stop offset="1" stop-color="white" stop-opacity="0"/>
</linearGradient>
<linearGradient id="paint11_linear_1709_6" x1="30.1851" y1="175.348" x2="12.2481" y2="175.348" gradientUnits="userSpaceOnUse">
<stop stop-color="white"/>
<stop offset="1" stop-color="white" stop-opacity="0"/>
</linearGradient>
</defs>
</svg>
