<svg width="575" height="380" viewBox="0 0 575 380" fill="none" xmlns="http://www.w3.org/2000/svg">
<circle cx="286.248" cy="246" r="134" fill="#34333F"/>
<g filter="url(#filter0_b_1600_7)">
<path d="M292.248 188L227.248 66.5L227.248 0.5" stroke="url(#paint0_linear_1600_7)" stroke-opacity="0.6" stroke-width="81"/>
</g>
<path d="M227.248 75.5L227.248 44M227.248 44L219.248 52M227.248 44L235.248 52" stroke="url(#paint1_linear_1600_7)" stroke-width="3"/>
<g filter="url(#filter1_b_1600_7)">
<path d="M289.248 188L354.248 66.5L354.248 0.5" stroke="url(#paint2_linear_1600_7)" stroke-opacity="0.8" stroke-width="81"/>
</g>
<path d="M353.248 41L353.248 72.5M353.248 72.5L361.248 64.5M353.248 72.5L345.248 64.5" stroke="url(#paint3_linear_1600_7)" stroke-width="3"/>
<g filter="url(#filter2_b_1600_7)">
<path d="M338.248 243L459.748 308L574.248 308" stroke="url(#paint4_linear_1600_7)" stroke-opacity="0.7" stroke-width="81"/>
</g>
<path d="M522.748 307L491.248 307M491.248 307L499.248 315M491.248 307L499.248 299" stroke="url(#paint5_linear_1600_7)" stroke-width="3"/>
<g filter="url(#filter3_b_1600_7)">
<path d="M338.248 246L459.748 181L574.248 181" stroke="url(#paint6_linear_1600_7)" stroke-opacity="0.6" stroke-width="81"/>
</g>
<path d="M490.748 181L522.248 181M522.248 181L514.248 173M522.248 181L514.248 189" stroke="url(#paint7_linear_1600_7)" stroke-width="3"/>
<g filter="url(#filter4_b_1600_7)">
<path d="M236.248 245L114.748 180L0.248047 180" stroke="url(#paint8_linear_1600_7)" stroke-opacity="0.7" stroke-width="81"/>
</g>
<path d="M99.7481 181L68.248 181M68.248 181L76.248 189M68.248 181L76.248 173" stroke="url(#paint9_linear_1600_7)" stroke-width="3"/>
<g filter="url(#filter5_b_1600_7)">
<path d="M236.248 242L114.748 307L0.248047 307" stroke="url(#paint10_linear_1600_7)" stroke-opacity="0.8" stroke-width="81"/>
</g>
<path d="M61.248 307H92.748M92.748 307L84.748 299M92.748 307L84.748 315" stroke="url(#paint11_linear_1600_7)" stroke-width="3"/>
<g filter="url(#filter6_d_1600_7)">
<circle cx="286.248" cy="246" r="87" fill="white"/>
</g>
<path d="M235.473 247.51C237.843 247.51 239.763 245.59 239.763 243.22C239.763 240.85 237.843 238.9 235.473 238.9H224.313V253C226.473 253 228.213 251.26 228.213 249.1V248.29C228.213 247.87 228.573 247.51 228.993 247.51H235.473ZM234.963 242.59C235.443 242.59 235.863 242.98 235.863 243.49C235.863 244 235.443 244.39 234.963 244.39H228.933C228.423 244.39 228.033 244 228.033 243.49C228.033 242.98 228.423 242.59 228.933 242.59H234.963ZM255.83 253C255.83 250.96 254.21 249.31 252.17 249.31H247.31C246.68 249.31 246.14 248.8 246.14 248.14V242.83C246.14 240.67 244.4 238.9 242.24 238.9V249.1C242.24 251.26 243.98 253 246.14 253H255.83ZM270.99 249.1C270.99 251.26 272.73 253 274.89 253V242.83C274.89 240.67 273.15 238.9 270.99 238.9H261.99C259.83 238.9 258.09 240.67 258.09 242.83V253C260.25 253 261.99 251.26 261.99 249.1V248.29C261.99 247.87 262.35 247.51 262.77 247.51H270.21C270.63 247.51 270.99 247.87 270.99 248.29V249.1ZM270.09 242.59C270.6 242.59 270.99 242.98 270.99 243.49C270.99 244 270.6 244.39 270.09 244.39H262.89C262.38 244.39 261.99 244 261.99 243.49C261.99 242.98 262.38 242.59 262.89 242.59H270.09ZM287.245 247.21L293.425 239.53C292.765 238.99 291.925 238.72 291.115 238.72C290.065 238.72 288.985 239.2 288.265 240.07L285.265 243.76L282.295 240.07C281.575 239.2 280.495 238.72 279.415 238.72C278.605 238.72 277.795 238.99 277.105 239.53L283.315 247.21V251.05C283.315 252.13 284.185 253 285.265 253C286.345 253 287.245 252.13 287.245 251.05V247.21ZM311.248 253C311.248 250.96 309.598 249.31 307.558 249.31H300.208C299.728 249.31 299.308 248.92 299.308 248.41C299.308 247.93 299.728 247.51 300.208 247.51H305.758C306.628 247.51 307.348 246.82 307.348 245.95C307.348 245.08 306.628 244.39 305.758 244.39H300.208C299.728 244.39 299.308 244 299.308 243.49C299.308 242.98 299.728 242.59 300.208 242.59H307.168C309.208 242.59 310.858 240.94 310.858 238.9H299.308C297.148 238.9 295.408 240.67 295.408 242.83V249.1C295.408 251.26 297.148 253 299.308 253H311.248ZM330.347 249.1C330.347 247.72 329.657 246.52 328.577 245.8C329.417 245.08 329.957 244.03 329.957 242.83C329.957 240.67 328.217 238.9 326.057 238.9H319.187H313.727V253C315.887 253 317.627 251.26 317.627 249.1V248.71C317.627 248.05 318.167 247.51 318.797 247.51H319.997H323.927H325.277C325.907 247.51 326.447 248.05 326.447 248.71V249.1C326.447 251.26 328.187 253 330.347 253V249.1ZM325.157 242.59C325.637 242.59 326.057 242.98 326.057 243.49C326.057 244 325.637 244.39 325.157 244.39H318.347C317.837 244.39 317.447 244 317.447 243.49C317.447 242.98 317.837 242.59 318.347 242.59H325.157ZM344.903 253C347.303 253 349.223 251.08 349.223 248.71C349.223 246.31 347.303 244.39 344.903 244.39H337.793C337.313 244.39 336.893 244 336.893 243.49C336.893 242.98 337.313 242.59 337.793 242.59H344.753C346.793 242.59 348.443 240.94 348.443 238.9H337.283C334.913 238.9 332.993 240.85 332.993 243.22C332.993 245.59 334.913 247.51 337.283 247.51H344.423C344.903 247.51 345.323 247.93 345.323 248.41C345.323 248.92 344.903 249.31 344.423 249.31H336.143C334.103 249.31 332.453 250.96 332.453 253H344.903Z" fill="#212121"/>
<defs>
<filter id="filter0_b_1600_7" x="166.748" y="-19.5" width="181.211" height="246.604" filterUnits="userSpaceOnUse" color-interpolation-filters="sRGB">
<feFlood flood-opacity="0" result="BackgroundImageFix"/>
<feGaussianBlur in="BackgroundImage" stdDeviation="10"/>
<feComposite in2="SourceAlpha" operator="in" result="effect1_backgroundBlur_1600_7"/>
<feBlend mode="normal" in="SourceGraphic" in2="effect1_backgroundBlur_1600_7" result="shape"/>
</filter>
<filter id="filter1_b_1600_7" x="233.537" y="-19.5" width="181.211" height="246.604" filterUnits="userSpaceOnUse" color-interpolation-filters="sRGB">
<feFlood flood-opacity="0" result="BackgroundImageFix"/>
<feGaussianBlur in="BackgroundImage" stdDeviation="10"/>
<feComposite in2="SourceAlpha" operator="in" result="effect1_backgroundBlur_1600_7"/>
<feBlend mode="normal" in="SourceGraphic" in2="effect1_backgroundBlur_1600_7" result="shape"/>
</filter>
<filter id="filter2_b_1600_7" x="299.143" y="187.289" width="295.105" height="181.211" filterUnits="userSpaceOnUse" color-interpolation-filters="sRGB">
<feFlood flood-opacity="0" result="BackgroundImageFix"/>
<feGaussianBlur in="BackgroundImage" stdDeviation="10"/>
<feComposite in2="SourceAlpha" operator="in" result="effect1_backgroundBlur_1600_7"/>
<feBlend mode="normal" in="SourceGraphic" in2="effect1_backgroundBlur_1600_7" result="shape"/>
</filter>
<filter id="filter3_b_1600_7" x="299.143" y="120.5" width="295.105" height="181.211" filterUnits="userSpaceOnUse" color-interpolation-filters="sRGB">
<feFlood flood-opacity="0" result="BackgroundImageFix"/>
<feGaussianBlur in="BackgroundImage" stdDeviation="10"/>
<feComposite in2="SourceAlpha" operator="in" result="effect1_backgroundBlur_1600_7"/>
<feBlend mode="normal" in="SourceGraphic" in2="effect1_backgroundBlur_1600_7" result="shape"/>
</filter>
<filter id="filter4_b_1600_7" x="-19.752" y="119.5" width="295.105" height="181.211" filterUnits="userSpaceOnUse" color-interpolation-filters="sRGB">
<feFlood flood-opacity="0" result="BackgroundImageFix"/>
<feGaussianBlur in="BackgroundImage" stdDeviation="10"/>
<feComposite in2="SourceAlpha" operator="in" result="effect1_backgroundBlur_1600_7"/>
<feBlend mode="normal" in="SourceGraphic" in2="effect1_backgroundBlur_1600_7" result="shape"/>
</filter>
<filter id="filter5_b_1600_7" x="-19.752" y="186.289" width="295.105" height="181.211" filterUnits="userSpaceOnUse" color-interpolation-filters="sRGB">
<feFlood flood-opacity="0" result="BackgroundImageFix"/>
<feGaussianBlur in="BackgroundImage" stdDeviation="10"/>
<feComposite in2="SourceAlpha" operator="in" result="effect1_backgroundBlur_1600_7"/>
<feBlend mode="normal" in="SourceGraphic" in2="effect1_backgroundBlur_1600_7" result="shape"/>
</filter>
<filter id="filter6_d_1600_7" x="187.248" y="159" width="198" height="202" filterUnits="userSpaceOnUse" color-interpolation-filters="sRGB">
<feFlood flood-opacity="0" result="BackgroundImageFix"/>
<feColorMatrix in="SourceAlpha" type="matrix" values="0 0 0 0 0 0 0 0 0 0 0 0 0 0 0 0 0 0 127 0" result="hardAlpha"/>
<feOffset dy="16"/>
<feGaussianBlur stdDeviation="6"/>
<feComposite in2="hardAlpha" operator="out"/>
<feColorMatrix type="matrix" values="0 0 0 0 0 0 0 0 0 0 0 0 0 0 0 0 0 0 0.25 0"/>
<feBlend mode="normal" in2="BackgroundImageFix" result="effect1_dropShadow_1600_7"/>
<feBlend mode="normal" in="SourceGraphic" in2="effect1_dropShadow_1600_7" result="shape"/>
</filter>
<linearGradient id="paint0_linear_1600_7" x1="251.515" y1="1" x2="251.515" y2="188" gradientUnits="userSpaceOnUse">
<stop stop-color="#0975FF"/>
<stop offset="0.843006" stop-color="#D02837"/>
</linearGradient>
<linearGradient id="paint1_linear_1600_7" x1="227.248" y1="44" x2="227.248" y2="75.5" gradientUnits="userSpaceOnUse">
<stop stop-color="white"/>
<stop offset="1" stop-color="white" stop-opacity="0"/>
</linearGradient>
<linearGradient id="paint2_linear_1600_7" x1="311.998" y1="1" x2="311.998" y2="188" gradientUnits="userSpaceOnUse">
<stop stop-color="white"/>
<stop offset="1" stop-color="white" stop-opacity="0"/>
</linearGradient>
<linearGradient id="paint3_linear_1600_7" x1="353.248" y1="72.5" x2="353.248" y2="41" gradientUnits="userSpaceOnUse">
<stop stop-color="white"/>
<stop offset="1" stop-color="white" stop-opacity="0"/>
</linearGradient>
<linearGradient id="paint4_linear_1600_7" x1="576.912" y1="275.5" x2="338.248" y2="275.5" gradientUnits="userSpaceOnUse">
<stop stop-color="#3BC66A"/>
<stop offset="1" stop-color="#00F1E0"/>
</linearGradient>
<linearGradient id="paint5_linear_1600_7" x1="491.248" y1="307" x2="522.748" y2="307" gradientUnits="userSpaceOnUse">
<stop stop-color="white"/>
<stop offset="1" stop-color="white" stop-opacity="0"/>
</linearGradient>
<linearGradient id="paint6_linear_1600_7" x1="571.643" y1="194.655" x2="338.248" y2="194.655" gradientUnits="userSpaceOnUse">
<stop stop-color="#0975FF"/>
<stop offset="0.843006" stop-color="#D02837"/>
</linearGradient>
<linearGradient id="paint7_linear_1600_7" x1="522.248" y1="181" x2="490.748" y2="181" gradientUnits="userSpaceOnUse">
<stop stop-color="white"/>
<stop offset="1" stop-color="white" stop-opacity="0"/>
</linearGradient>
<linearGradient id="paint8_linear_1600_7" x1="-2.41558" y1="212.5" x2="236.248" y2="212.5" gradientUnits="userSpaceOnUse">
<stop stop-color="#3BC66A"/>
<stop offset="1" stop-color="#00F1E0"/>
</linearGradient>
<linearGradient id="paint9_linear_1600_7" x1="68.248" y1="181" x2="99.7481" y2="181" gradientUnits="userSpaceOnUse">
<stop stop-color="white"/>
<stop offset="1" stop-color="white" stop-opacity="0"/>
</linearGradient>
<linearGradient id="paint10_linear_1600_7" x1="-2.75195" y1="277.25" x2="221.248" y2="277.25" gradientUnits="userSpaceOnUse">
<stop stop-color="white"/>
<stop offset="1" stop-color="white" stop-opacity="0"/>
</linearGradient>
<linearGradient id="paint11_linear_1600_7" x1="92.748" y1="307" x2="61.248" y2="307" gradientUnits="userSpaceOnUse">
<stop stop-color="white"/>
<stop offset="1" stop-color="white" stop-opacity="0"/>
</linearGradient>
</defs>
</svg>
