<svg width="174" height="41" viewBox="0 0 174 41" fill="none" xmlns="http://www.w3.org/2000/svg">
<path d="M111.432 26.8863V15.0052C111.538 14.9966 111.648 14.9764 111.757 14.9764C115.1 14.9764 118.443 14.9592 121.786 14.9822C124.193 14.9994 125.757 17.4285 124.789 19.6191C124.622 19.9956 124.352 20.3262 124.104 20.7143C124.17 20.7603 124.268 20.8322 124.369 20.9012C125.509 21.6831 125.999 23.0457 125.636 24.4256C125.296 25.7278 124.127 26.7397 122.808 26.8662C122.618 26.8834 122.425 26.8863 122.235 26.8863C118.777 26.8863 115.319 26.8863 111.861 26.8863C111.734 26.8863 111.61 26.8863 111.432 26.8863ZM118.362 23.589C119.434 23.589 120.502 23.5948 121.573 23.5833C122.091 23.5775 122.296 23.29 122.296 22.8358C122.296 22.3816 122.034 22.0884 121.564 22.0884C119.399 22.0741 115.601 22.0827 115.273 22.0827C114.772 22.0827 114.504 22.373 114.504 22.833C114.504 23.2929 114.752 23.5833 115.307 23.5833C116.327 23.5919 117.346 23.5833 118.365 23.5833L118.362 23.589ZM118.066 17.9115C117.124 17.9115 116.186 17.9029 115.241 17.9144C114.74 17.9201 114.495 18.1731 114.495 18.6417C114.495 19.1102 114.752 19.4265 115.276 19.4265C117.072 19.4265 119.1 19.4265 120.896 19.4265C121.386 19.4265 121.625 19.1189 121.625 18.6963C121.625 18.2737 121.461 17.9144 120.856 17.9144C119.926 17.9029 118.996 17.9115 118.066 17.9144V17.9115Z" fill="white"/>
<path d="M135.225 14.7924C136.463 14.7924 137.698 14.7867 138.936 14.7924C140.937 14.8039 142.354 16.2097 142.363 18.199C142.371 19.8979 142.371 21.5969 142.363 23.2958C142.354 25.2851 140.937 26.6937 138.936 26.7023C136.437 26.7109 133.937 26.7109 131.438 26.7023C129.471 26.6937 128.058 25.3052 128.04 23.3533C128.026 21.617 128.026 19.8807 128.04 18.1415C128.058 16.1924 129.474 14.8068 131.441 14.7924C132.702 14.7838 133.966 14.7924 135.227 14.7924H135.225ZM135.213 23.5861C136.12 23.5861 137.024 23.5919 137.931 23.5861C138.651 23.5804 139.017 23.2182 139.023 22.5081C139.028 21.341 139.028 20.1739 139.023 19.0067C139.02 18.2766 138.651 17.9115 137.911 17.9086C136.1 17.9029 134.289 17.9029 132.475 17.9086C131.74 17.9086 131.36 18.2881 131.357 19.0067C131.352 20.1624 131.355 21.3151 131.357 22.4708C131.357 23.2182 131.732 23.5833 132.495 23.5861C133.402 23.5919 134.306 23.5861 135.213 23.5861Z" fill="white"/>
<path d="M158.802 26.6793C158.683 25.6962 159.418 24.4888 160.44 23.9541C160.961 23.681 161.52 23.589 162.101 23.589C164.347 23.5919 166.59 23.5919 168.836 23.589C169.51 23.589 169.784 23.2929 169.7 22.6892C169.654 22.3615 169.479 22.1517 169.142 22.1057C168.966 22.0798 168.787 22.074 168.609 22.074C166.734 22.074 164.857 22.0798 162.982 22.0712C161.065 22.0597 159.579 20.8494 159.254 19.0585C158.871 16.9485 160.512 14.8442 162.643 14.8154C165.819 14.7723 168.995 14.8011 172.171 14.8011C172.22 14.8011 172.269 14.8154 172.407 14.8356C172.338 15.1719 172.312 15.5111 172.2 15.8187C171.733 17.1238 170.564 17.9086 169.093 17.9144C167.192 17.923 165.292 17.9144 163.391 17.9201C162.729 17.9201 162.43 18.2881 162.559 18.8831C162.623 19.1764 162.792 19.3603 163.092 19.4006C163.268 19.4236 163.446 19.4351 163.625 19.4351C165.588 19.4408 167.555 19.4035 169.519 19.4523C171.975 19.5156 173.634 21.9332 172.856 24.2444C172.395 25.6128 171.085 26.6764 169.657 26.6908C166.087 26.7282 162.513 26.7081 158.943 26.7081C158.894 26.7081 158.845 26.6908 158.802 26.6851V26.6793Z" fill="white"/>
<path d="M144.021 14.8011H157.612C157.736 15.9624 156.838 17.3164 155.591 17.6758C154.957 17.8597 154.261 17.8626 153.59 17.8827C152.553 17.9144 152.484 17.9604 152.484 18.9895C152.484 21.0075 152.487 23.0227 152.481 25.0407C152.481 25.7623 152.038 26.3775 151.401 26.5959C150.736 26.8259 150.022 26.6391 149.556 26.1101C149.242 25.7565 149.152 25.334 149.155 24.874C149.158 22.8818 149.155 20.8897 149.155 18.9004C149.155 18.7595 149.158 18.6215 149.144 18.4836C149.103 18.0811 148.939 17.9144 148.533 17.9C148.076 17.8827 147.615 17.9 147.154 17.8885C145.484 17.8396 144.134 16.6265 144.021 15.0799C144.016 14.9937 144.021 14.9103 144.021 14.8011Z" fill="white"/>
<path d="M28.7227 26.8578C28.5097 26.8578 28.3714 26.8578 28.2332 26.8578C25.0946 26.8578 21.956 26.8032 18.8174 26.8779C16.8018 26.9239 15.1519 25.3745 15.2181 23.3018C15.2699 21.6805 15.2267 20.0563 15.2296 18.4321C15.2354 16.3393 16.6319 14.9508 18.7368 14.9451C21.812 14.9422 24.8844 14.9451 27.9597 14.9451C28.0835 14.9451 28.2102 14.9566 28.4434 14.9681C28.3225 15.4194 28.2735 15.8535 28.095 16.2243C27.5047 17.4518 26.494 18.0555 25.1263 18.0584C23.2115 18.0612 21.2995 18.0584 19.3847 18.0641C18.7541 18.0641 18.4978 18.3717 18.5842 18.9811C18.6274 19.2916 18.7915 19.4986 19.114 19.5446C19.2781 19.5676 19.4423 19.5791 19.6093 19.5791C21.0893 19.582 22.5693 19.5676 24.0494 19.5877C25.0313 19.5992 25.6388 20.5076 25.2904 21.3901C25.0802 21.9248 24.6282 22.2152 23.9572 22.218C22.6039 22.2238 21.2534 22.218 19.9001 22.218C19.7475 22.218 19.5949 22.218 19.4423 22.218C18.8145 22.2324 18.5755 22.4423 18.5784 22.9798C18.5784 23.526 18.8088 23.7359 19.4365 23.7359C21.4521 23.7388 23.4677 23.7301 25.4834 23.7416C27.0872 23.7503 28.3484 24.7535 28.6594 26.2397C28.6968 26.4209 28.6997 26.6106 28.7227 26.8549V26.8578Z" fill="white"/>
<path d="M0.247803 14.9796C0.386017 14.9738 0.498315 14.9652 0.610614 14.9652C3.63404 14.9652 6.65459 14.9566 9.67802 14.9652C11.423 14.9709 12.8541 16.0662 13.2629 17.6703C13.8417 19.9413 12.2321 22.1433 9.8767 22.2152C8.09432 22.2698 6.30618 22.2324 4.52092 22.2353C3.69163 22.2353 3.54766 22.3618 3.57357 23.1839C3.61965 24.6443 3.06679 25.7712 1.77391 26.5042C1.3132 26.7658 0.809297 26.8894 0.247803 26.8521V14.9796ZM6.7093 18.0814C5.8541 18.0814 5.08529 18.0641 4.23297 18.0814C3.72906 18.0814 3.4152 18.3602 3.4152 18.8432C3.4152 19.3261 3.7377 19.6021 4.29344 19.6021C5.91169 19.6078 7.53283 19.6021 9.15108 19.6021C9.74137 19.6021 10.0063 19.3433 10.0063 18.8259C10.0063 18.3085 9.75865 18.09 9.11941 18.09C8.2786 18.09 7.5501 18.09 6.70642 18.09L6.7093 18.0814Z" fill="white"/>
<path d="M43.3446 14.9681C43.4742 16.1237 42.5643 17.4805 41.3175 17.8456C40.707 18.0239 40.039 18.0325 39.394 18.0497C38.2653 18.0814 38.2105 18.1101 38.2105 19.237C38.2105 21.2033 38.2163 23.1696 38.2077 25.1359C38.2048 26.0845 37.6145 26.7658 36.7535 26.8463C35.7169 26.944 34.8963 26.234 34.8905 25.1962C34.879 23.1552 34.8877 21.1113 34.8848 19.0703C34.8848 18.9294 34.8905 18.7914 34.8761 18.6534C34.8358 18.2567 34.6659 18.0842 34.2628 18.0699C33.805 18.0526 33.3443 18.0699 32.8864 18.0584C31.3402 18.0124 30.0962 17.0148 29.8054 15.5861C29.7651 15.3935 29.7622 15.1923 29.7392 14.9709H43.3446V14.9681Z" fill="white"/>
<path d="M59.3717 18.3458C59.3573 16.3537 57.9406 14.9652 55.9307 14.9566C54.6926 14.9508 53.4573 14.9566 52.2191 14.9566C50.9694 14.9566 49.7197 14.9508 48.4701 14.9566C46.4947 14.9652 45.0781 16.322 45.0435 18.2826C45.0118 20.0304 45.0147 21.7811 45.0435 23.5318C45.0752 25.4923 46.489 26.8578 48.4643 26.8636C50.9637 26.8722 53.463 26.8722 55.9624 26.8636C57.9435 26.8549 59.3544 25.455 59.3717 23.48C59.3861 21.7696 59.3832 20.0563 59.3717 18.3458ZM56.0401 22.6636C56.0373 23.3737 55.6687 23.7445 54.9546 23.7474C54.036 23.7531 53.1175 23.7474 52.1989 23.7474C51.2919 23.7474 50.3878 23.7531 49.4807 23.7474C48.7465 23.7416 48.3779 23.3708 48.375 22.6406C48.3721 21.485 48.3721 20.3322 48.375 19.1766C48.375 18.4493 48.7494 18.0727 49.4836 18.0699C51.3092 18.0641 53.1319 18.0641 54.9575 18.0699C55.6658 18.0699 56.0373 18.4493 56.0401 19.1594C56.0459 20.3265 56.0459 21.4936 56.0401 22.6607V22.6636Z" fill="white"/>
<path fill-rule="evenodd" clip-rule="evenodd" d="M105.455 2.55831C105.95 1.19555 105.24 0.485124 103.877 0.980629C103.303 1.18923 102.626 1.63941 101.774 2.20536C99.0207 4.03482 94.4467 7.07408 85.672 7.07408C76.9178 7.07408 72.3755 4.06003 69.6116 2.22606C68.7481 1.65311 68.0582 1.19534 67.4677 0.980627C66.105 0.485122 65.3945 1.19556 65.8901 2.55832C66.0945 3.12063 66.5382 3.81538 67.0977 4.69143C68.9238 7.55092 71.9835 12.342 71.9835 20.7633C71.9835 29.0408 69.1105 33.582 67.254 36.5165C66.6431 37.4822 66.1422 38.2739 65.8901 38.9675C65.3945 40.3302 66.105 41.0407 67.4677 40.5452C68.1961 40.2803 69.0255 39.7659 70.029 39.1436C73.0321 37.2811 77.5942 34.4517 85.672 34.4517C93.7818 34.4517 98.4039 37.3237 101.392 39.1807C102.375 39.7914 103.181 40.2923 103.877 40.5452C105.24 41.0407 105.95 40.3302 105.455 38.9675C105.206 38.285 104.711 37.5016 104.105 36.5437C102.25 33.6127 99.3614 29.047 99.3614 20.7323C99.3614 12.3146 102.388 7.59334 104.22 4.73612C104.789 3.84866 105.243 3.14103 105.455 2.55831ZM75.0645 20.4327C75.0645 19.6088 75.2871 18.8369 75.6754 18.1737C77.8592 18.9729 80.5657 19.6005 83.9683 19.7577C84.0016 19.9779 84.0188 20.2033 84.0188 20.4327C84.0188 22.9054 82.0144 24.9099 79.5417 24.9099C77.069 24.9099 75.0645 22.9054 75.0645 20.4327ZM87.2921 20.4327C87.2921 20.2029 87.3094 19.9772 87.3428 19.7568C90.7393 19.5976 93.4467 18.9685 95.6325 18.1685C96.0227 18.8328 96.2464 19.6066 96.2464 20.4327C96.2464 22.9054 94.2419 24.9099 91.7693 24.9099C89.2966 24.9099 87.2921 22.9054 87.2921 20.4327Z" fill="white"/>
</svg>
