<svg width="28" height="27" viewBox="0 0 28 27" fill="none" xmlns="http://www.w3.org/2000/svg">
<path fill-rule="evenodd" clip-rule="evenodd" d="M13.748 27C21.2039 27 27.248 20.9558 27.248 13.5C27.248 6.04416 21.2039 0 13.748 0C6.2922 0 0.248047 6.04416 0.248047 13.5C0.248047 20.9558 6.2922 27 13.748 27ZM13.7479 5.80912C11.8567 5.80912 10.3236 7.3422 10.3236 9.23334C10.3236 11.1245 11.8567 12.6576 13.7479 12.6576C15.639 12.6576 17.1721 11.1245 17.1721 9.23334C17.1721 7.3422 15.639 5.80912 13.7479 5.80912ZM5.97809 16.7062C5.97809 14.8151 7.51117 13.282 9.40231 13.282C11.2935 13.282 12.8265 14.8151 12.8265 16.7062C12.8265 18.5974 11.2935 20.1305 9.40231 20.1305C7.51117 20.1305 5.97809 18.5974 5.97809 16.7062ZM18.094 13.282C16.2029 13.282 14.6698 14.8151 14.6698 16.7062C14.6698 18.5974 16.2029 20.1305 18.094 20.1305C19.9852 20.1305 21.5182 18.5974 21.5182 16.7062C21.5182 14.8151 19.9852 13.282 18.094 13.282Z" fill="#E33637"/>
</svg>
