<svg width="28" height="27" viewBox="0 0 28 27" fill="none" xmlns="http://www.w3.org/2000/svg">
<path fill-rule="evenodd" clip-rule="evenodd" d="M13.748 24.8668C20.0257 24.8668 25.1148 19.7777 25.1148 13.5C25.1148 7.2223 20.0257 2.13322 13.748 2.13322C7.47035 2.13322 2.38126 7.2223 2.38126 13.5C2.38126 19.7777 7.47035 24.8668 13.748 24.8668ZM13.748 27C21.2039 27 27.248 20.9558 27.248 13.5C27.248 6.04416 21.2039 0 13.748 0C6.2922 0 0.248047 6.04416 0.248047 13.5C0.248047 20.9558 6.2922 27 13.748 27Z" fill="#21AFFF"/>
<path d="M10.3235 9.23297C10.3235 7.34174 11.8566 5.80859 13.7478 5.80859C15.6391 5.80859 17.1722 7.34174 17.1722 9.23297C17.1722 11.1242 15.6391 12.6573 13.7478 12.6573C11.8566 12.6573 10.3235 11.1242 10.3235 9.23297Z" fill="#21AFFF"/>
<path d="M5.97775 16.7057C5.97775 14.8145 7.51089 13.2814 9.40212 13.2814C11.2934 13.2814 12.8265 14.8145 12.8265 16.7057C12.8265 18.597 11.2934 20.1301 9.40212 20.1301C7.51089 20.1301 5.97775 18.597 5.97775 16.7057Z" fill="#21AFFF"/>
<path d="M14.6692 16.7057C14.6692 14.8145 16.2023 13.2814 18.0936 13.2814C19.9848 13.2814 21.5179 14.8145 21.5179 16.7057C21.5179 18.597 19.9848 20.1301 18.0936 20.1301C16.2023 20.1301 14.6692 18.597 14.6692 16.7057Z" fill="#21AFFF"/>
</svg>
