<svg width="21" height="18" viewBox="0 0 21 18" fill="none" xmlns="http://www.w3.org/2000/svg">
<path fill-rule="evenodd" clip-rule="evenodd" d="M16.077 17.4886C16.3543 17.6849 16.7116 17.734 17.0302 17.6135C17.3488 17.4921 17.583 17.22 17.6536 16.8902C18.4018 13.3738 20.2168 4.47353 20.8979 1.27487C20.9495 1.03378 20.8634 0.783226 20.674 0.622217C20.4846 0.461207 20.222 0.414712 19.9878 0.501674C16.3775 1.83797 5.25925 6.00958 0.714815 7.69114C0.426375 7.79791 0.238674 8.07516 0.248145 8.3791C0.258477 8.6839 0.463399 8.94823 0.758727 9.03691C2.79675 9.64651 5.47192 10.4946 5.47192 10.4946C5.47192 10.4946 6.72211 14.2702 7.3739 16.1902C7.4557 16.4313 7.64426 16.6207 7.89309 16.6862C8.14106 16.7507 8.40626 16.6827 8.59138 16.5079C9.63837 15.5195 11.2571 13.9912 11.2571 13.9912C11.2571 13.9912 14.3326 16.2462 16.077 17.4886ZM6.59727 10.0176L8.04291 14.7859L8.36407 11.7663C8.36407 11.7663 13.9495 6.72853 17.1335 3.85705C17.2265 3.77267 17.2394 3.63146 17.1619 3.53245C17.0853 3.43343 16.9441 3.41018 16.8382 3.47734C13.1479 5.83394 6.59727 10.0176 6.59727 10.0176Z" fill="white"/>
</svg>
