<svg width="21" height="18" viewBox="0 0 21 18" fill="none" xmlns="http://www.w3.org/2000/svg">
<path fill-rule="evenodd" clip-rule="evenodd" d="M16.077 17.4872C16.3543 17.6835 16.7116 17.7326 17.0302 17.612C17.3488 17.4906 17.583 17.2185 17.6536 16.8888C18.4018 13.3724 20.2168 4.47207 20.8979 1.2734C20.9495 1.03232 20.8634 0.781761 20.674 0.620752C20.4846 0.459742 20.222 0.413247 19.9878 0.50021C16.3775 1.8365 5.25925 6.00812 0.714815 7.68968C0.426375 7.79645 0.238674 8.07369 0.248145 8.37763C0.258477 8.68243 0.463399 8.94676 0.758727 9.03545C2.79675 9.64504 5.47192 10.4931 5.47192 10.4931C5.47192 10.4931 6.72211 14.2687 7.3739 16.1888C7.4557 16.4298 7.64426 16.6193 7.89309 16.6847C8.14106 16.7493 8.40626 16.6813 8.59138 16.5065C9.63837 15.518 11.2571 13.9897 11.2571 13.9897C11.2571 13.9897 14.3326 16.2447 16.077 17.4872ZM6.59727 10.0161L8.04291 14.7844L8.36407 11.7649C8.36407 11.7649 13.9495 6.72707 17.1335 3.85558C17.2265 3.7712 17.2394 3.63 17.1619 3.53098C17.0853 3.43196 16.9441 3.40872 16.8382 3.47588C13.1479 5.83247 6.59727 10.0161 6.59727 10.0161Z" fill="#0393D9"/>
</svg>
