<svg width="20" height="17" viewBox="0 0 20 17" fill="none" xmlns="http://www.w3.org/2000/svg">
<path d="M19.9356 2.54528C19.2114 2.86661 18.4336 3.08384 17.6158 3.18148C18.4504 2.6817 19.0898 1.88973 19.3917 0.947146C18.5989 1.41804 17.7312 1.74954 16.8264 1.92726C16.0901 1.14238 15.04 0.652344 13.8783 0.652344C11.6485 0.652344 9.84015 2.45999 9.84015 4.6911C9.84015 5.00722 9.87575 5.31563 9.9442 5.61174C6.58753 5.44304 3.61162 3.83516 1.61968 1.39198C1.27187 1.98867 1.07278 2.68243 1.07278 3.42264C1.07278 4.82367 1.78588 6.0598 2.86943 6.78391C2.22798 6.76403 1.60062 6.59089 1.03978 6.27896V6.33C1.03978 8.287 2.43173 9.91882 4.27947 10.2899C3.94004 10.3829 3.58383 10.4315 3.21532 10.4315C2.95476 10.4315 2.70198 10.4069 2.45503 10.3604C2.969 11.9644 4.46057 13.132 6.2274 13.165C4.84515 14.2485 3.10344 14.8944 1.21176 14.8944C0.885941 14.8944 0.563927 14.875 0.247803 14.8369C2.03543 15.9831 4.15795 16.6523 6.43885 16.6523C13.8673 16.6523 17.93 10.4982 17.93 5.16117C17.93 4.98595 17.9262 4.81204 17.9177 4.63876C18.7093 4.06623 19.3925 3.35734 19.9356 2.54528Z" fill="#0F9EFF"/>
</svg>
