<svg width="19" height="16" viewBox="0 0 19 16" fill="none" xmlns="http://www.w3.org/2000/svg">
<path fill-rule="evenodd" clip-rule="evenodd" d="M14.1238 15.1476C14.3668 15.3197 14.68 15.3627 14.9593 15.2571C15.2385 15.1507 15.4438 14.9122 15.5057 14.6231C16.1616 11.5407 17.7526 3.73877 18.3496 0.934858C18.3949 0.723526 18.3194 0.503893 18.1534 0.362754C17.9873 0.221614 17.7571 0.180858 17.5519 0.257088C14.3872 1.42847 4.64102 5.08525 0.657424 6.55929C0.404581 6.65288 0.240045 6.89591 0.248347 7.16234C0.257404 7.42952 0.437036 7.66123 0.695917 7.73897C2.48242 8.27334 4.82744 9.01677 4.82744 9.01677C4.82744 9.01677 5.92335 12.3264 6.4947 14.0095C6.5664 14.2208 6.73169 14.3869 6.94981 14.4442C7.16718 14.5008 7.39965 14.4412 7.56192 14.288C8.4797 13.4215 9.89864 12.0818 9.89864 12.0818C9.89864 12.0818 12.5946 14.0585 14.1238 15.1476ZM5.81391 8.59864L7.08114 12.7785L7.36266 10.1315C7.36266 10.1315 12.2588 5.71547 15.0498 3.19837C15.1314 3.1244 15.1427 3.00062 15.0747 2.91382C15.0076 2.82703 14.8838 2.80665 14.791 2.86552C11.5561 4.93128 5.81391 8.59864 5.81391 8.59864Z" fill="white"/>
</svg>
