<svg width="20" height="17" viewBox="0 0 20 17" fill="none" xmlns="http://www.w3.org/2000/svg">
<path d="M19.9356 2.54577C19.2114 2.8671 18.4336 3.08433 17.6158 3.18197C18.4504 2.68219 19.0898 1.89022 19.3917 0.947634C18.5989 1.41852 17.7312 1.75003 16.8264 1.92775C16.0901 1.14287 15.04 0.652832 13.8783 0.652832C11.6485 0.652832 9.84015 2.46048 9.84015 4.69159C9.84015 5.00771 9.87575 5.31612 9.9442 5.61223C6.58753 5.44353 3.61162 3.83565 1.61968 1.39247C1.27187 1.98916 1.07278 2.68292 1.07278 3.42313C1.07278 4.82416 1.78588 6.06029 2.86943 6.7844C2.22798 6.76452 1.60062 6.59138 1.03978 6.27945V6.33049C1.03978 8.28749 2.43173 9.91931 4.27947 10.2904C3.94004 10.3834 3.58383 10.432 3.21532 10.432C2.95476 10.432 2.70198 10.4074 2.45503 10.3609C2.969 11.9649 4.46057 13.1325 6.2274 13.1655C4.84515 14.249 3.10344 14.8949 1.21176 14.8949C0.885941 14.8949 0.563927 14.8755 0.247803 14.8374C2.03543 15.9836 4.15795 16.6528 6.43885 16.6528C13.8673 16.6528 17.93 10.4986 17.93 5.16166C17.93 4.98644 17.9262 4.81253 17.9177 4.63925C18.7093 4.06672 19.3925 3.35783 19.9356 2.54577Z" fill="white"/>
</svg>
